<svg xmlns="http://www.w3.org/2000/svg" version="1.1" xmlns:xlink="http://www.w3.org/1999/xlink" xmlns:svgjs="http://svgjs.dev/svgjs" width="508" height="508"><svg id="SvgjsSvg1010" xmlns="http://www.w3.org/2000/svg" viewBox="0 0 508 508"><defs><style>.cls-1{fill:#fff;}.cls-2{stroke:#1e6a2e;}.cls-2,.cls-3{fill:#1e6a2e;stroke-miterlimit:10;stroke-width:.99px;}.cls-3{stroke:#699ee6;}.cls-4{fill:#699ee6;}</style></defs><g id="SvgjsG1009"><path class="cls-4" d="M254,507.5c-67.71,0-131.37-26.37-179.25-74.25C26.87,385.37.5,321.71.5,254S26.87,122.63,74.75,74.75C122.63,26.87,186.29.5,254,.5s131.37,26.37,179.25,74.25c47.88,47.88,74.25,111.54,74.25,179.25s-26.37,131.37-74.25,179.25c-47.88,47.88-111.54,74.25-179.25,74.25Z"></path><path class="cls-1" d="M254,.99c34.16,0,67.29,6.69,98.48,19.88,30.13,12.74,57.19,30.99,80.42,54.22,23.24,23.24,41.48,50.29,54.22,80.42,13.19,31.19,19.88,64.33,19.88,98.48s-6.69,67.29-19.88,98.48c-12.74,30.13-30.99,57.19-54.22,80.42s-50.29,41.48-80.42,54.22c-31.19,13.19-64.33,19.88-98.48,19.88s-67.29-6.69-98.48-19.88c-30.13-12.74-57.19-30.99-80.42-54.22-23.24-23.24-41.48-50.29-54.22-80.42C7.68,321.29.99,288.16.99,254s6.69-67.29,19.88-98.48c12.74-30.13,30.99-57.19,54.22-80.42,23.24-23.24,50.29-41.48,80.42-54.22C186.71,7.68,219.84.99,254,.99M254,0C113.72,0,0,113.72,0,254s113.72,254,254,254,254-113.72,254-254S394.28,0,254,0h0Z"></path></g><g id="SvgjsG1008"><path class="cls-3" d="M164.21,20.34S237.63-4.46,248.54,4.46c1.98,35.72-27.78,61.52-32.74,64.49l-11.91,17.86s-29.77,19.84-27.78-50.6c-11.91-2.98-9.92,0-11.91-15.88Z"></path><path class="cls-3" d="M127.5,37.21S5.46,112.61,4.46,247.55c12.9,6.95,33.73,18.85,30.76,36.71,1.98,18.85,18.85,3.75,30.76,11.3,17.86,2.2,20.84,15.49,3.97-9.32,5.95-18.85,2.98-28.77,23.81-27.78,7.94,8.93,15.88,11.91,22.82-11.91,31.75-29.77,23.81-32.74,38.7-33.73,9.92,4.96,36.71-57.55,36.71-57.55-2.98-7.94-33.73-28.77-33.73-28.77-9.92,0-25.8,12.9-25.8,32.74-18.85-16.87-30.76-32.74-34.23-31.25,4.96-10.91,19.35-15.38,19.35-15.38,0-8.93,7.94-16.87,7.94-16.87,10.91,5.95,31.75,13.89,34.73,12.9,9.92-2.98,4.96-16.87-23.81-31.75-.99-31.75,0-41.67-8.93-39.69Z"></path><path class="cls-2" d="M160.24,480.71s-51.59-14.88-65.48-37.7c3.97-19.84-31.75-77.39-10.91-89.3,8.93-3.97,11.91-21.06-17.86-58.15-29.77-37.1,3.97-9.32,3.97-9.32l15.88,7.94c0,8.93,15.88,22.82,46.63,17.86,10.91,3.97.99,27.78,84.34,47.62,6.95,3.97,27.78,3.97-5.95,29.77-25.8,26.79-40.68,94.26-50.6,91.28Z"></path></g><g id="SvgjsG1007"><path class="cls-2" d="M503.54,260.45s11.91-136.92-117.08-218.28c-6.95,17.86-40.68,26.79-42.66,34.73,7.94,9.92,28.77,32.74,41.67-9.92,3.97-1.98,28.77,59.53-18.85,42.66-12.9,0-43.66-.99-44.65,20.84.99,4.96,1.98,3.97,28.77,8.93-5.95,4.96-15.99,30.47-31.81,29.62-6.84,8.22-23.76,37.85,17.91,20.98,8.93-14.88,11.91-15.88,11.91-15.88l16.87,4.96s31.75,19.84,13.89,33.73c-8.93,2.98-14.88,34.73,21.83-8.93.99-4.96-16.54-43.94-4.8-34.87,9.59,13.19,29.6,68.6,35.55,57.69-1.98-14.88,2.98-74.41,50.6-20.84-21.83,1.98-35.72,10.91-44.65,22.82,5.95,6.95,1.98,15.87,32.74,11.91,0,6.95,6.95,7.94,0,23.81,11.91,1.98,25.8,13.89,27.78,20.84s4.96-24.8,4.96-24.8Z"></path><path class="cls-2" d="M333.87,235.64s-87.31,46.63-20.84,86.32c21.83,6.95,30.76,13.89,54.57,1.98,8.93,1.98,14.88-3.97,10.91,12.9-3.97,10.91-9.4,3.09,1.25,24.86,4.44,20.73,2.72,26.73-5.22,29.71-4.96,4.96-14.88,36.71,16.87,71.44,18.85-14.88,56.55-45.64,68.46-67.47-3.97-7.94-12.9-26.79-3.97-32.74,17.86-10.91,34.84-11.99,44.7-61.56-15.99,7.03-42.72,12.94-52.64-5.91-10.91-16.87-20.56-41.18-20.56-41.18-10.2,1.49-33.07,0-33.07,0,0,0-1.93,12.4-26.74,2.48,0-6.95,7.94-13.89,7.94-13.89,0,0-6.95-26.79-41.67-6.95Z"></path></g><g id="SvgjsG1006"><path class="cls-1" d="M254,11.91c32.69,0,64.39,6.4,94.23,19.02,28.83,12.19,54.72,29.65,76.96,51.89s39.69,48.13,51.89,76.96c12.62,29.84,19.02,61.54,19.02,94.23s-6.4,64.39-19.02,94.23c-12.19,28.83-29.65,54.72-51.89,76.96-22.24,22.24-48.13,39.69-76.96,51.89-29.84,12.62-61.54,19.02-94.23,19.02s-64.39-6.4-94.23-19.02c-28.83-12.19-54.72-29.65-76.96-51.89s-39.69-48.13-51.89-76.96c-12.62-29.84-19.02-61.54-19.02-94.23s6.4-64.39,19.02-94.23c12.19-28.83,29.65-54.72,51.89-76.96,22.24-22.24,48.13-39.69,76.96-51.89,29.84-12.62,61.54-19.02,94.23-19.02M254,0C113.72,0,0,113.72,0,254s113.72,254,254,254,254-113.72,254-254S394.28,0,254,0h0Z"></path></g></svg><style>@media (prefers-color-scheme: light) { :root { filter: none; } }
@media (prefers-color-scheme: dark) { :root { filter: none; } }
</style></svg>